<?xml version="1.0"?>
<svg xmlns="http://www.w3.org/2000/svg" xmlns:xlink="http://www.w3.org/1999/xlink" version="1.1" viewBox="0 0 210 210" width="26px" height="26px"><g fill="none" fill-rule="nonzero" stroke="none" stroke-width="1" stroke-linecap="butt" stroke-linejoin="miter" stroke-miterlimit="10" stroke-dasharray="" stroke-dashoffset="0" font-family="none" font-weight="none" font-size="none" text-anchor="none" style="mix-blend-mode: normal"><path d="M0,210v-210h210v210z" fill="none"/><g fill="#38acfd"><g id="surface1"><path d="M105,1.51442c-57.13792,0 -103.48558,46.34765 -103.48558,103.48558c0,57.13792 46.34765,103.48558 103.48558,103.48558c57.13792,0 103.48558,-46.34765 103.48558,-103.48558c0,-57.13792 -46.34765,-103.48558 -103.48558,-103.48558zM105,17.66827c48.14604,0 87.33173,39.1857 87.33173,87.33173c0,3.78606 -0.28395,7.44591 -0.75721,11.10577c-1.60908,-0.41015 -6.65715,-1.70372 -12.11538,-1.76683c-4.89033,-0.0631 -10.75871,0.75721 -13.88221,1.26202c0.82032,-3.34435 1.51442,-6.90956 1.51442,-10.60096c0,-9.21274 -3.47055,-18.17308 -9.59135,-25.74519c2.27163,-7.1304 5.42668,-23.34736 -0.75721,-29.53125c-15.14423,0 -23.66286,9.62289 -25.24038,11.61058c-6.94111,-2.52404 -14.45012,-3.78606 -22.46394,-3.78606c-7.82452,0 -15.39663,1.13582 -22.21154,3.53365c-2.11388,-2.55559 -10.47476,-11.35817 -24.98798,-11.35817c-6.05769,6.05769 -3.02885,21.67518 -0.75721,29.02644c-6.40475,7.69832 -10.09615,16.8164 -10.09615,26.25c0,3.47056 0.28395,6.94111 1.00962,10.09615c-2.65024,-0.22086 -13.40895,-1.00962 -17.66827,-1.00962c-4.25932,0 -11.26352,0.91496 -15.90144,2.01923c-0.47326,-3.65986 -0.75721,-7.31971 -0.75721,-11.10577c0,-48.14603 39.1857,-87.33173 87.33173,-87.33173zM34.32692,116.10577c4.19621,0 17.13191,1.16737 18.42548,1.26202c0.22086,0.75721 0.47326,1.51442 0.75721,2.27163c-4.25932,-0.34706 -13.3774,-0.94651 -19.18269,-0.2524c-7.09886,0.85186 -12.33624,3.65986 -14.38702,4.79567c-0.4417,-1.98768 -0.94651,-4.03846 -1.26202,-6.05769c4.44862,-1.04116 11.70523,-2.01923 15.64904,-2.01923zM179.45913,116.35817c5.30048,0.06311 10.50631,1.19892 11.86298,1.51442c-0.1262,0.91496 -0.34706,1.86148 -0.50481,2.77644c-0.69411,-0.1893 -7.0042,-2.11388 -13.62981,-2.27163c-3.2497,-0.09465 -8.39242,0.44171 -12.36779,0.75721c0.18931,-0.50481 0.34706,-1.00962 0.50481,-1.51442c2.74489,-0.37861 9.27585,-1.32512 14.13462,-1.26202zM176.9351,120.39663c6.4363,0.15775 13.2512,2.17698 13.62981,2.27163c-5.96304,28.99489 -26.3131,52.59465 -53.25721,63.35337v-13.88221c0,-8.73948 -5.20583,-20.09765 -12.62019,-25.74519c20.88642,-2.9973 33.88522,-12.24159 39.375,-25.24038c3.75451,-0.3155 9.49669,-0.85186 12.8726,-0.75721zM40.88942,121.15385c5.77374,0.03155 10.94802,0.31551 13.3774,0.50481c5.61599,12.71485 18.52013,21.76984 39.1226,24.73558c-2.33473,1.79838 -4.51172,4.13311 -6.3101,6.8149c-0.0631,0.09465 -0.1893,0.15775 -0.2524,0.2524c-4.03846,4.85878 -11.61058,4.54327 -18.67788,4.54327c-7.22506,0 -11.54747,-5.77374 -15.39663,-10.85337c-3.88071,-5.04808 -8.92879,-5.48978 -11.61058,-5.80529c-2.68179,-0.28395 -3.40745,1.07272 -2.01923,2.01923c7.85607,5.52134 10.94802,12.27313 14.13462,18.17308c2.8711,5.30048 8.77104,8.07692 15.39663,8.07692h12.36779c-0.09465,0.82032 -0.2524,1.73528 -0.2524,2.52404v16.65865c-29.75211,-8.58173 -52.78395,-32.43389 -60.32452,-62.59615c1.57753,-0.88341 7.13041,-3.97536 14.13462,-4.79567c1.67217,-0.1893 3.91226,-0.2524 6.3101,-0.2524zM109.03846,169.61538c2.24009,0 4.03846,1.79838 4.03846,4.03846v18.17308c-2.68179,0.2524 -5.33203,0.50481 -8.07692,0.50481v-18.67788c0,-2.24009 1.79838,-4.03846 4.03846,-4.03846zM92.88462,174.41106c2.24009,0 4.03846,1.79838 4.03846,4.03846v13.3774c-2.68179,-0.2524 -5.45823,-0.53636 -8.07692,-1.00962v-12.36779c0,-2.24009 1.79838,-4.03846 4.03846,-4.03846zM125.19231,174.41106c2.24009,0 4.03846,1.79838 4.03846,4.03846v10.34856c-2.65024,0.75721 -5.33203,1.51442 -8.07692,2.01923v-12.36779c0,-2.24009 1.79838,-4.03846 4.03846,-4.03846z"/></g></g></g></svg>
