<?xml version="1.0" encoding="utf-8"?>
<!-- Generator: Adobe Illustrator 22.1.0, SVG Export Plug-In . SVG Version: 6.00 Build 0)  -->
<svg version="1.1" id="Слой_1" xmlns="http://www.w3.org/2000/svg" xmlns:xlink="http://www.w3.org/1999/xlink" x="0px" y="0px"
	 viewBox="0 0 32 32" style="enable-background:new 0 0 32 32;" xml:space="preserve">
<style type="text/css">
	.st0{fill:#B70202;}
</style>
<g id="XMLID_1_">
	<g>
		<path class="st0" d="M20.1,18.5c0.6,0.4,1.3,0.7,2,0.9c0.3,0.1,0.5,0,0.7-0.1c0.2-0.1,0.3-0.4,0.1-0.5c0-0.1-0.1-0.1-0.2-0.1
			c-0.2-0.1-0.5-0.1-0.8-0.2C21.3,18.4,20.7,18.4,20.1,18.5z M9.2,23c0.6-0.5,1-1.1,1.5-1.7C10.1,21.6,9.5,22,9,22.4
			c-0.3,0.2-0.5,0.5-0.7,0.8v0.2c0.1,0.1,0.1,0.1,0.2,0.1C8.8,23.3,9,23.1,9.2,23z M15.8,15.9c-0.3,0.8-0.7,1.6-1,2.4l2.4-0.6
			C16.7,17.1,16.2,16.4,15.8,15.9z M15.2,8.6c0-0.1-0.1-0.1-0.2-0.1s-0.1,0.1-0.2,0.1c-0.2,0.3-0.2,0.6-0.2,1c0,0.3,0,0.5,0.1,0.8
			c0.2,0.2,0.2,0.5,0.3,0.8c0.2-0.6,0.3-1.2,0.3-1.7C15.3,9.2,15.3,8.9,15.2,8.6z M15,7.2h0.8c0.2,0,0.4,0.1,0.5,0.3
			C16.6,7.7,16.8,8,17,8.3c0.2,0.4,0.2,0.8,0.3,1.2c0,1.2-0.2,2.3-0.4,3.4c-0.1,0.4-0.2,0.7-0.3,1.1v0.1c0.6,1.1,1.4,2.1,2.2,3
			c0.1,0.1,0.1,0.1,0.3,0.1c1.1-0.2,2.2-0.2,3.2-0.2c0.6,0,1.3,0.1,1.9,0.4c0.3,0.2,0.6,0.4,0.8,0.7c0.1,0.2,0.2,0.4,0.2,0.6v0.7
			c0,0.2-0.1,0.4-0.3,0.5c-0.2,0.2-0.4,0.5-0.8,0.5c-0.2,0-0.5,0.1-0.7,0.1c-1.6,0.1-2.9-0.4-4.2-1.3c-0.2-0.2-0.5-0.4-0.7-0.6
			c-0.1,0-0.1-0.1-0.2-0.1c-0.6,0.1-1.2,0.2-1.8,0.4c-0.8,0.2-1.6,0.5-2.4,0.7c-0.1,0-0.1,0.1-0.2,0.1c-0.5,0.9-1.1,1.8-1.7,2.6
			c-0.5,0.6-1.1,1.2-1.7,1.7c-0.3,0.2-0.7,0.4-1.1,0.5H8.6c-0.2,0-0.3,0-0.5-0.1c-0.5-0.2-0.9-0.6-1-1.1C7,23.3,7,23.1,7,22.9
			c0.1-0.6,0.5-1,0.9-1.4C8.4,21,9,20.7,9.7,20.3c0.7-0.4,1.4-0.7,2.1-1c0.1,0,0.2-0.1,0.2-0.2c0.6-1.2,1.2-2.4,1.7-3.6
			c0.3-0.7,0.5-1.4,0.8-2.1v-0.1c-0.3-0.7-0.6-1.5-0.7-2.3c-0.2-0.8-0.2-1.6-0.1-2.4c0.1-0.5,0.4-0.9,0.8-1.3
			C14.6,7.2,14.8,7.2,15,7.2z"/>
	</g>
	<g>
	</g>
</g>
</svg>
